<?xml version="1.0" encoding="UTF-8" standalone="no"?>
<!-- Created with Inkscape (http://www.inkscape.org/) -->

<svg
   xmlns:dc="http://purl.org/dc/elements/1.1/"
   xmlns:cc="http://creativecommons.org/ns#"
   xmlns:rdf="http://www.w3.org/1999/02/22-rdf-syntax-ns#"
   xmlns:svg="http://www.w3.org/2000/svg"
   xmlns="http://www.w3.org/2000/svg"
   xmlns:sodipodi="http://sodipodi.sourceforge.net/DTD/sodipodi-0.dtd"
   xmlns:inkscape="http://www.inkscape.org/namespaces/inkscape"
   width="210mm"
   height="297mm"
   viewBox="0 0 744.09448819 1052.3622047"
   id="svg2"
   version="1.1"
   inkscape:version="0.91 r13725"
   sodipodi:docname="flounder.svg">
  <defs
     id="defs4" />
  <sodipodi:namedview
     id="base"
     pagecolor="#ffffff"
     bordercolor="#666666"
     borderopacity="1.0"
     inkscape:pageopacity="0.0"
     inkscape:pageshadow="2"
     inkscape:zoom="1"
     inkscape:cx="319.22229"
     inkscape:cy="442.66373"
     inkscape:document-units="px"
     inkscape:current-layer="layer1"
     showgrid="false"
     inkscape:snap-object-midpoints="true"
     inkscape:object-paths="true"
     inkscape:snap-bbox="true"
     inkscape:snap-intersection-paths="true"
     inkscape:object-nodes="true"
     inkscape:snap-smooth-nodes="true"
     inkscape:bbox-nodes="true"
     inkscape:bbox-paths="true"
     inkscape:snap-bbox-edge-midpoints="true"
     inkscape:snap-bbox-midpoints="true"
     inkscape:window-width="1920"
     inkscape:window-height="1080"
     inkscape:window-x="1920"
     inkscape:window-y="0"
     inkscape:window-maximized="0" />
  <metadata
     id="metadata7">
    <rdf:RDF>
      <cc:Work
         rdf:about="">
        <dc:format>image/svg+xml</dc:format>
        <dc:type
           rdf:resource="http://purl.org/dc/dcmitype/StillImage" />
        <dc:title></dc:title>
      </cc:Work>
    </rdf:RDF>
  </metadata>
  <g
     inkscape:label="Layer 1"
     inkscape:groupmode="layer"
     id="layer1">
    <g
       id="g4185">
      <rect
         ry="51.191833"
         y="285.15131"
         x="103.23758"
         height="483.66107"
         width="483.66107"
         id="rect4169"
         style="color:#000000;clip-rule:nonzero;display:inline;overflow:visible;visibility:visible;opacity:1;isolation:auto;mix-blend-mode:normal;color-interpolation:sRGB;color-interpolation-filters:linearRGB;solid-color:#000000;solid-opacity:1;fill:#bdbdbd;fill-opacity:1;fill-rule:nonzero;stroke:none;stroke-width:4;stroke-linecap:butt;stroke-linejoin:miter;stroke-miterlimit:4;stroke-dasharray:none;stroke-dashoffset:0;stroke-opacity:1;color-rendering:auto;image-rendering:auto;shape-rendering:auto;text-rendering:auto;enable-background:accumulate" />
      <circle
         r="241.83052"
         cy="526.98181"
         cx="345.06812"
         id="path4149"
         style="color:#000000;clip-rule:nonzero;display:inline;overflow:visible;visibility:visible;opacity:1;isolation:auto;mix-blend-mode:normal;color-interpolation:sRGB;color-interpolation-filters:linearRGB;solid-color:#000000;solid-opacity:1;fill:#ffffff;fill-opacity:1;fill-rule:evenodd;stroke:none;stroke-width:1.50000024;stroke-linecap:butt;stroke-linejoin:miter;stroke-miterlimit:4;stroke-dasharray:none;stroke-dashoffset:0;stroke-opacity:1;color-rendering:auto;image-rendering:auto;shape-rendering:auto;text-rendering:auto;enable-background:accumulate" />
      <path
         inkscape:connector-curvature="0"
         id="path4147"
         d="m 346.96021,685.67263 c -12.81121,-0.5267 -35.20672,-2.65323 -50.26074,-4.77242 -6.32977,-0.89106 -23.70125,-4.38927 -28.38426,-5.71595 -2.48987,-0.70537 -4.98347,-1.40124 -5.54134,-1.54639 -15.96515,-4.15397 -36.90123,-16.84475 -46.90546,-28.43261 -2.58678,-2.99626 -5.47317,-5.44775 -6.41419,-5.44775 -0.94102,0 -2.27914,-0.68464 -2.97362,-1.52144 -0.69448,-0.83679 -1.88116,-1.52144 -2.63707,-1.52144 -0.7559,0 -3.87743,-1.3542 -6.93672,-3.00933 -3.05929,-1.65515 -5.7559,-2.68212 -5.99247,-2.28216 -0.23656,0.39994 0.17803,2.78112 0.92134,5.29149 0.7433,2.51038 2.08503,7.0747 2.98162,10.14294 0.89659,3.06823 1.71956,8.08899 1.82883,11.15722 l 0.19868,5.57862 -3.38989,0.3248 c -4.39582,0.42119 -8.89277,-1.78229 -13.47016,-6.60033 -6.85524,-7.21562 -8.102,-14.4476 -5.39533,-31.29612 0.60074,-3.73955 0.4233,-4.20719 -2.01858,-5.31979 -1.47247,-0.6709 -5.22622,-3.16202 -8.34166,-5.53581 -3.11544,-2.3738 -6.5084,-4.80755 -7.53991,-5.40834 -3.72012,-2.1667 -23.99576,-23.87689 -31.55499,-33.78758 -1.84095,-2.41362 -4.81989,-6.27917 -6.61986,-8.59012 -1.79999,-2.31096 -4.46784,-6.14158 -5.92858,-8.51249 -1.46072,-2.37091 -3.06892,-4.31075 -3.57378,-4.31075 -0.50485,0 -0.91791,-0.71748 -0.91791,-1.5944 0,-0.87691 -1.18874,-3.62281 -2.64162,-6.10197 -3.45031,-5.88751 -2.79464,-10.01069 1.44387,-9.07976 2.64555,0.58106 2.87733,0.31904 4.64658,-5.25268 1.02418,-3.22533 2.2802,-7.0232 2.79115,-8.4397 1.88462,-5.22462 22.8627,-24.78492 31.28887,-29.17425 2.3234,-1.21031 10.14293,-15.51222 10.14293,-18.55143 0,-0.61306 0.83859,-2.32622 1.86353,-3.80698 1.02495,-1.48077 2.17105,-3.37696 2.54691,-4.21375 0.37585,-0.83679 1.47709,-2.70382 2.44721,-4.14896 0.97012,-1.44513 3.04496,-4.55807 4.61079,-6.91763 3.49708,-5.26982 14.91372,-18.65455 19.86796,-23.29296 2.0112,-1.88298 5.91144,-5.53443 8.66722,-8.11435 13.10888,-12.27228 30.31941,-23.08577 51.78992,-32.53994 22.76688,-10.025 42.44727,-18.3454 45.64319,-19.29684 2.23145,-0.66431 5.42647,-1.8135 7.10005,-2.55375 6.18215,-2.73444 21.7512,-4.20809 27.62861,-2.6151 2.36493,0.64097 8.02608,3.65951 12.58035,6.70786 4.55427,3.04834 8.66706,5.54245 9.13952,5.54245 0.47247,0 0.85904,0.42339 0.85904,0.94086 0,0.51746 2.8527,2.65221 6.33933,4.74387 3.48664,2.09166 7.76709,4.97741 9.51214,6.41278 1.74504,1.43535 5.62471,4.33844 8.62149,6.4513 6.54477,4.61434 13.09075,9.76711 18.77044,14.77543 2.30622,2.03361 7.32697,6.43054 11.15722,9.77097 9.95307,8.68022 29.12265,28.17183 32.95588,33.5095 1.79271,2.49632 3.63854,4.53875 4.10183,4.53875 0.46329,0 0.84235,0.61391 0.84235,1.36423 0,0.75034 0.91287,2.19037 2.02859,3.20009 1.11572,1.00972 2.02859,2.44975 2.02859,3.20008 0,0.75033 0.45643,1.36424 1.01429,1.36424 0.55786,0 1.01429,0.48688 1.01429,1.08196 0,0.59509 1.02812,2.53493 2.28471,4.31075 2.62525,3.71004 3.34405,4.87863 8.537,13.87886 2.09217,3.6261 5.14221,9.3315 6.77785,12.67866 1.63564,3.34717 3.30894,6.77041 3.71845,7.6072 1.60723,3.28419 45.64529,0.34734 60.83975,-4.05734 3.37777,-0.97917 18.94399,-3.93185 24.34303,-4.61751 8.48715,-1.07783 21.23222,-1.29144 24.50317,-0.41067 7.80739,2.10232 9.29261,9.76977 3.3899,17.50031 -1.95252,2.55713 -3.55003,4.90888 -3.55003,5.22611 0,0.31723 1.3693,2.46703 3.04288,4.77735 1.67358,2.31032 3.04288,5.10518 3.04288,6.21082 0,2.55003 -3.58028,8.39355 -6.31719,10.31056 l -2.09363,1.46644 2.17682,5.06017 c 1.19725,2.78309 2.17683,6.02985 2.17683,7.21501 0,1.20559 -2.32259,4.61064 -5.27238,7.72961 -5.77848,6.10988 -5.67408,5.09411 -1.506,14.65374 2.35379,5.39849 0.46035,8.5447 -6.6613,11.06877 l -2.78959,0.98869 2.02507,3.32145 c 4.0897,6.7077 1.46203,12.31406 -6.31387,13.47118 -3.45283,0.51382 -7.00843,-0.19954 -17.51793,-3.51458 -7.2522,-2.28759 -15.3541,-5.28688 -18.00423,-6.66508 -2.65014,-1.37819 -5.43271,-2.50581 -6.1835,-2.50581 -0.7508,0 -2.69039,-0.65962 -4.31022,-1.46583 -3.66491,-1.82407 -25.19466,-10.1668 -33.37394,-12.93233 -10.06399,-3.40279 -29.92165,-2.58525 -29.92165,1.23187 0,0.98372 -9.3114,13.15004 -17.98595,23.50051 -2.6596,3.17345 -7.22036,8.65063 -10.13501,12.17152 -2.91466,3.52089 -5.93489,7.13969 -6.71162,8.04177 -0.77674,0.90208 -4.85892,5.78129 -9.07153,10.8427 -11.599,13.93607 -40.22061,42.37536 -44.3394,44.05697 -4.45314,1.81811 -8.97482,2.37305 -16.73584,2.05396 z"
         style="fill:#7e7e7e;fill-opacity:1;stroke:none;stroke-width:4;stroke-miterlimit:4;stroke-dasharray:none;stroke-opacity:1" />
      <circle
         r="9.8994951"
         cy="558.8017"
         cx="168.49242"
         id="path4151"
         style="color:#000000;clip-rule:nonzero;display:inline;overflow:visible;visibility:visible;opacity:1;isolation:auto;mix-blend-mode:normal;color-interpolation:sRGB;color-interpolation-filters:linearRGB;solid-color:#000000;solid-opacity:1;fill:#ffffff;fill-opacity:1;fill-rule:evenodd;stroke:none;stroke-width:1.50000024;stroke-linecap:butt;stroke-linejoin:miter;stroke-miterlimit:4;stroke-dasharray:none;stroke-dashoffset:0;stroke-opacity:1;color-rendering:auto;image-rendering:auto;shape-rendering:auto;text-rendering:auto;enable-background:accumulate" />
      <circle
         style="color:#000000;clip-rule:nonzero;display:inline;overflow:visible;visibility:visible;opacity:1;isolation:auto;mix-blend-mode:normal;color-interpolation:sRGB;color-interpolation-filters:linearRGB;solid-color:#000000;solid-opacity:1;fill:#ffffff;fill-opacity:1;fill-rule:evenodd;stroke:none;stroke-width:1.50000024;stroke-linecap:butt;stroke-linejoin:miter;stroke-miterlimit:4;stroke-dasharray:none;stroke-dashoffset:0;stroke-opacity:1;color-rendering:auto;image-rendering:auto;shape-rendering:auto;text-rendering:auto;enable-background:accumulate"
         id="circle4167"
         cx="168.49242"
         cy="533.34583"
         r="9.8994951" />
    </g>
  </g>
</svg>
